<!-- icon666.com - MILLIONS vector ICONS FREE --><svg viewBox="0 0 512 512" xmlns="http://www.w3.org/2000/svg"><path d="m56 496h48a8 8 0 0 0 6.555-3.414l8.81-12.586h273.27l8.81 12.586a8 8 0 0 0 6.555 3.414h48a8 8 0 0 0 6.555-12.586l-49.97-71.385a56.054 56.054 0 0 0 35.415-52.029v-288a56.065 56.065 0 0 0 -56-56h-272a56.065 56.065 0 0 0 -56 56v288a56.054 56.054 0 0 0 35.415 52.029l-49.97 71.385a8 8 0 0 0 6.555 12.586zm74.565-32 11.2-16h228.47l11.2 16zm22.4-32 11.2-16h183.67l11.2 16zm287.668 48h-28.469l-44.8-64h28.469zm-312.633-448h256v16h-256zm0 32h256v160h-256zm0 176h256v24a24.027 24.027 0 0 1 -24 24h-208a24.027 24.027 0 0 1 -24-24zm-48 120v-288a40.067 40.067 0 0 1 32-39.191v231.191a40.047 40.047 0 0 0 40 40h208a40.047 40.047 0 0 0 40-40v-231.191a40.067 40.067 0 0 1 32 39.191v288a40.047 40.047 0 0 1 -40 40h-272a40.047 40.047 0 0 1 -40-40zm36.164 56h28.469l-44.8 64h-28.466z"></path><path d="m144 384a32 32 0 1 0 -32-32 32.034 32.034 0 0 0 32 32zm0-48a16 16 0 1 1 -16 16 16.019 16.019 0 0 1 16-16z"></path><path d="m368 384a32 32 0 1 0 -32-32 32.034 32.034 0 0 0 32 32zm0-48a16 16 0 1 1 -16 16 16.019 16.019 0 0 1 16-16z"></path><path d="m144 80h16v16h-16z"></path><path d="m144 112h16v96h-16z"></path></svg>