<?xml version="1.0"?>
<svg xmlns="http://www.w3.org/2000/svg" width="50" height="50" viewBox="0 0 50 50">
    <path style="text-indent:0;text-align:start;line-height:normal;text-transform:none;block-progression:tb;-inkscape-font-specification:Bitstream Vera Sans" d="M 37.09375 0.09375 A 2.0002 2.0002 0 0 0 35.90625 3.53125 L 42.375 10 L 2 10 A 2.0002 2.0002 0 0 0 1.8125 10 A 2.0021961 2.0021961 0 1 0 2 14 L 42.375 14 L 35.90625 20.46875 A 2.0002 2.0002 0 1 0 38.71875 23.3125 L 48.625 13.40625 L 50.03125 12 L 48.625 10.59375 L 38.71875 0.6875 A 2.0002 2.0002 0 0 0 37.09375 0.09375 z M 12.5 26.09375 A 2.0002 2.0002 0 0 0 11.3125 26.6875 L 1.40625 36.59375 L 0 38 L 1.40625 39.40625 L 11.3125 49.3125 A 2.0002 2.0002 0 1 0 14.125 46.46875 L 7.65625 40 L 48 40 A 2.0002 2.0002 0 1 0 48 36 L 7.65625 36 L 14.125 29.53125 A 2.0002 2.0002 0 0 0 12.5 26.09375 z" overflow="visible" enable-background="accumulate" font-family="Bitstream Vera Sans"/>
</svg>
