<svg width="30" height="30" xmlns="http://www.w3.org/2000/svg">

 <g>
  <title>background</title>
  <rect fill="none" id="canvas_background" height="402" width="582" y="-1" x="-1"/>
 </g>
 <g>
  <title>Layer 1</title>
  <path fill="white" stroke-width="0" id="svg_1" d="m13,3.15625c-5.51133,0 -10,4.48867 -10,10c0,5.51133 4.48867,10 10,10c2.39665,0 4.59741,-0.85106 6.32227,-2.26367l5.9707,5.9707a1.0001,1.0001 0 1 0 1.41406,-1.41406l-5.9707,-5.9707c1.41261,-1.72486 2.26367,-3.92562 2.26367,-6.32227c0,-5.51133 -4.48867,-10 -10,-10zm0,2c4.43067,0 8,3.56933 8,8c0,4.43067 -3.56933,8 -8,8c-4.43067,0 -8,-3.56933 -8,-8c0,-4.43067 3.56933,-8 8,-8z"/>
 </g>
</svg>